<svg width="24" height="24" viewBox="0 0 24 24" fill="none" xmlns="http://www.w3.org/2000/svg">
<path d="M4 14C4 11.19 4 9.787 4.674 8.778C4.96591 8.34106 5.34106 7.96591 5.778 7.674C6.787 7 8.191 7 11 7H13C15.81 7 17.213 7 18.222 7.674C18.6589 7.96591 19.0341 8.34106 19.326 8.778C20 9.787 20 11.19 20 14M4 14C4 16.81 4 18.213 4.674 19.222C4.96591 19.6589 5.34106 20.0341 5.778 20.326C6.787 21 8.19 21 11 21H13C15.809 21 17.213 21 18.222 20.326C18.6589 20.0341 19.0341 19.6589 19.326 19.222C20 18.213 20 16.81 20 14M4 14H2M20 14H22M10 17H14M15 11V13M9 11V13M12 7C12 5.114 12 4.172 11.414 3.586C10.828 3 9.886 3 8 3" stroke="#2A7BEC" stroke-width="1.5" stroke-linecap="round" stroke-linejoin="round"/>
</svg>
