<svg width="42" height="42" viewBox="0 0 42 42" fill="none" xmlns="http://www.w3.org/2000/svg">
<circle cx="21" cy="21" r="21" fill="#E8EFF9"/>
<circle cx="21" cy="21" r="16" fill="#2A7BEC"/>
<path d="M13.5 20.168H16C16.442 20.168 16.866 20.3436 17.1785 20.6561C17.4911 20.9687 17.6667 21.3926 17.6667 21.8346V24.3346C17.6667 24.7767 17.4911 25.2006 17.1785 25.5131C16.866 25.8257 16.442 26.0013 16 26.0013H15.1667C14.7246 26.0013 14.3007 25.8257 13.9882 25.5131C13.6756 25.2006 13.5 24.7767 13.5 24.3346V20.168ZM13.5 20.168C13.5 19.1831 13.694 18.2078 14.0709 17.2978C14.4478 16.3879 15.0003 15.5611 15.6967 14.8647C16.3931 14.1682 17.2199 13.6158 18.1299 13.2389C19.0398 12.862 20.0151 12.668 21 12.668C21.9849 12.668 22.9602 12.862 23.8701 13.2389C24.7801 13.6158 25.6069 14.1682 26.3033 14.8647C26.9997 15.5611 27.5522 16.3879 27.9291 17.2978C28.306 18.2078 28.5 19.1831 28.5 20.168M28.5 20.168V24.3346M28.5 20.168H26C25.558 20.168 25.134 20.3436 24.8215 20.6561C24.5089 20.9687 24.3333 21.3926 24.3333 21.8346V24.3346C24.3333 24.7767 24.5089 25.2006 24.8215 25.5131C25.134 25.8257 25.558 26.0013 26 26.0013H26.8333C27.2754 26.0013 27.6993 25.8257 28.0118 25.5131C28.3244 25.2006 28.5 24.7767 28.5 24.3346M28.5 24.3346V26.0013C28.5 26.8854 28.1488 27.7332 27.5237 28.3583C26.8986 28.9834 26.0507 29.3346 25.1667 29.3346H21" stroke="white" stroke-width="2" stroke-linecap="round" stroke-linejoin="round"/>
</svg>
