<svg width="24" height="24" viewBox="0 0 24 24" fill="none" xmlns="http://www.w3.org/2000/svg">
<path d="M12.0005 8.667H8.66748M12.0005 8.667V2H8.66748C7.78339 2 6.9355 2.35121 6.31034 2.97636C5.68519 3.60151 5.33398 4.4494 5.33398 5.3335C5.33398 6.2176 5.68519 7.06549 6.31034 7.69064C6.9355 8.31579 7.78339 8.667 8.66748 8.667M12.0005 8.667V15.333H8.66748M12.0005 8.667H15.3335M8.66748 8.667C7.78352 8.667 6.93576 9.01815 6.3107 9.64321C5.68564 10.2683 5.33448 11.116 5.33448 12C5.33448 12.884 5.68564 13.7317 6.3107 14.3568C6.93576 14.9818 7.78352 15.333 8.66748 15.333M8.66748 15.333C8.00832 15.333 7.36396 15.5285 6.81587 15.8946C6.26779 16.2608 5.84059 16.7813 5.58829 17.3903C5.33599 17.9993 5.26993 18.6694 5.39845 19.3159C5.52698 19.9624 5.84432 20.5563 6.31034 21.0224C6.77637 21.4886 7.37016 21.8061 8.01664 21.9348C8.66311 22.0636 9.33323 21.9977 9.94228 21.7456C10.5513 21.4935 11.0719 21.0664 11.4383 20.5184C11.8046 19.9705 12.0003 19.3262 12.0005 18.667M15.3335 8.667C14.4495 8.667 13.6018 9.01815 12.9767 9.64321C12.3516 10.2683 12.0005 11.116 12.0005 12C12.0005 12.884 12.3516 13.7317 12.9767 14.3568C13.6018 14.9818 14.4495 15.333 15.3335 15.333C16.2175 15.333 17.0652 14.9818 17.6903 14.3568C18.3153 13.7317 18.6665 12.884 18.6665 12C18.6665 11.116 18.3153 10.2683 17.6903 9.64321C17.0652 9.01815 16.2175 8.667 15.3335 8.667ZM15.3335 8.667C16.2176 8.667 17.0655 8.31579 17.6906 7.69064C18.3158 7.06549 18.667 6.2176 18.667 5.3335C18.667 4.4494 18.3158 3.60151 17.6906 2.97636C17.0655 2.35121 16.2176 2 15.3335 2" stroke="black" stroke-width="1.5" stroke-linecap="round" stroke-linejoin="round"/>
</svg>
